:FULLY-SPECIFIED
:FORCE-ALL-JOINTS-BE-3DOF
:DEGREES
421
root 10.2015 16.9759 23.4456 7.7949 -0.210822 -1.71103
lfemur -38.3149 2.8592 -22.1191
ltibia 37.8255 -0 0
lfoot -4.56353 8.01907 -0.035646
ltoes 4.0081 -0 0
rfemur 7.23945 0.685671 22.6989
rtibia 30.9653 -0 0
rfoot 9.80454 7.39256 0.173733
rtoes -17.9566 0 0
lowerback -7.44526 2.28479 -0.878954
upperback -2.40201 3.0763 1.37304
thorax 1.56858 1.54087 2.17175
lowerneck -18.9114 -6.50132 -14.3874
upperneck 21.9955 -8.30088 13.4652
head 11.5065 -3.42688 6.104
lclavicle 1.45304e-14 -2.45711e-15 -6.0121e-32
lhumerus -46.4285 -5.35726 90.1848
lradius 20.7149 -0 0
lwrist -2.66987 0 0
lhand -8.7414 -22.8787 -0.00376464
lfingers 7.12502 -0 0
lthumb 17.1946 6.37031 -0.00594462
rclavicle 1.45304e-14 -2.45711e-15 -6.0121e-32
rhumerus -40.3154 9.79963 -88.8848
rradius 32.1016 -0 0
rwrist -14.436 0 0
rhand -26.6833 -30.4721 -0.0149291
rfingers 7.12502 -0 0
rthumb -0.114152 -60.4486 -0.0144996
422
root 10.2183 16.9744 23.593 7.82001 -0.318215 -1.69644
lfemur -38.4543 2.78857 -22.2009
ltibia 37.3742 -0 0
lfoot -4.39841 7.95373 -0.0311184
ltoes 4.18616 -0 0
rfemur 7.68677 0.608094 22.5753
rtibia 30.9658 -0 0
rfoot 10.3233 7.49265 0.15162
rtoes -18.0302 0 0
lowerback -7.47534 2.33821 -0.889132
upperback -2.43071 3.14875 1.34718
thorax 1.5531 1.5774 2.15722
lowerneck -18.901 -6.50993 -14.4019
upperneck 22.0214 -8.30894 13.451
head 11.5154 -3.43376 6.10071
lclavicle 1.45869e-14 -2.13449e-15 -5.24866e-32
lhumerus -46.4792 -5.09103 90.0305
lradius 20.5656 -0 0
lwrist -2.94432 0 0
lhand -8.64046 -22.89 -0.00328655
lfingers 7.12502 -0 0
lthumb 17.2919 6.35178 -0.00518968
rclavicle 1.45869e-14 -2.13449e-15 -5.24866e-32
rhumerus -40.3923 9.64951 -88.9533
rradius 31.9 -0 0
rwrist -14.2799 0 0
rhand -26.6221 -30.546 -0.0130332
rfingers 7.12502 -0 0
rthumb -0.0550433 -60.523 -0.0126583
423
root 10.2351 16.9728 23.7404 7.8451 -0.425615 -1.6819
lfemur -38.5935 2.71775 -22.2826
ltibia 36.9228 -0 0
lfoot -4.2333 7.8884 -0.0264024
ltoes 4.36422 -0 0
rfemur 8.13426 0.531485 22.4511
rtibia 30.9663 -0 0
rfoot 10.842 7.59254 0.128601
rtoes -18.1039 0 0
lowerback -7.50544 2.39162 -0.899338
upperback -2.45945 3.22118 1.32129
thorax 1.53761 1.61394 2.14269
lowerneck -18.8906 -6.51854 -14.4164
upperneck 22.0474 -8.31699 13.4368
head 11.5244 -3.44064 6.09742
lclavicle 1.46434e-14 -1.81188e-15 -4.45341e-32
lhumerus -46.5305 -4.82493 89.876
lradius 20.4164 -0 0
lwrist -3.21876 0 0
lhand -8.53952 -22.9013 -0.00278855
lfingers 7.12502 -0 0
lthumb 17.3891 6.33326 -0.00440331
rclavicle 1.46434e-14 -1.81188e-15 -4.45341e-32
rhumerus -40.4689 9.4993 -89.0216
rradius 31.6985 -0 0
rwrist -14.1237 0 0
rhand -26.5609 -30.6199 -0.0110584
rfingers 7.12502 -0 0
rthumb 0.00406344 -60.5973 -0.0107402
424
root 10.252 16.9712 23.8879 7.87017 -0.533021 -1.66741
lfemur -38.7327 2.64672 -22.3641
ltibia 36.4715 -0 0
lfoot -4.0682 7.82308 -0.0214982
ltoes 4.54228 -0 0
rfemur 8.58191 0.455848 22.3263
rtibia 30.9668 -0 0
rfoot 11.3607 7.69222 0.104679
rtoes -18.1775 0 0
lowerback -7.53554 2.44502 -0.909573
upperback -2.48822 3.2936 1.29535
thorax 1.52212 1.65047 2.12814
lowerneck -18.8802 -6.52714 -14.431
upperneck 22.0734 -8.32504 13.4226
head 11.5334 -3.44752 6.09412
lclavicle 1.46999e-14 -1.48926e-15 -3.62635e-32
lhumerus -46.5826 -4.55897 89.7213
lradius 20.2671 -0 0
lwrist -3.4932 0 0
lhand -8.43858 -22.9126 -0.00227065
lfingers 7.12502 -0 0
lthumb 17.4863 6.31474 -0.00358551
rclavicle 1.46999e-14 -1.48926e-15 -3.62635e-32
rhumerus -40.5453 9.349 -89.0896
rradius 31.4969 -0 0
rwrist -13.9676 0 0
rhand -26.4997 -30.6938 -0.00900455
rfingers 7.12502 -0 0
rthumb 0.0631676 -60.6716 -0.00874551
425
root 10.2688 16.9696 24.0353 7.8952 -0.640433 -1.65296
lfemur -38.8717 2.5755 -22.4455
ltibia 36.0201 -0 0
lfoot -3.9031 7.75778 -0.0164058
ltoes 4.72034 -0 0
rfemur 9.02972 0.381188 22.2009
rtibia 30.9674 -0 0
rfoot 11.8794 7.79168 0.0798562
rtoes -18.2512 0 0
lowerback -7.56566 2.49842 -0.919836
upperback -2.51703 3.366 1.26938
thorax 1.50661 1.68699 2.11359
lowerneck -18.8698 -6.53574 -14.4455
upperneck 22.0994 -8.33308 13.4084
head 11.5424 -3.45439 6.09083
lclavicle 1.47564e-14 -1.16664e-15 -2.76747e-32
lhumerus -46.6353 -4.29315 89.5665
lradius 20.1178 -0 0
lwrist -3.76765 0 0
lhand -8.33763 -22.9239 -0.00173284
lfingers 7.12502 -0 0
lthumb 17.5836 6.29622 -0.00273627
rclavicle 1.47564e-14 -1.16664e-15 -2.76747e-32
rhumerus -40.6214 9.19861 -89.1574
rradius 31.2954 -0 0
rwrist -13.8114 0 0
rhand -26.4385 -30.7677 -0.00687181
rfingers 7.12502 -0 0
rthumb 0.122269 -60.7459 -0.00667412
426
root 10.2856 16.9681 24.1827 7.92021 -0.747852 -1.63855
lfemur -39.0106 2.50408 -22.5266
ltibia 35.5688 -0 0
lfoot -3.73801 7.6925 -0.0111253
ltoes 4.8984 -0 0
rfemur 9.47769 0.307511 22.075
rtibia 30.9679 -0 0
rfoot 12.3979 7.8909 0.0541337
rtoes -18.3248 0 0
lowerback -7.59578 2.55181 -0.930128
upperback -2.54588 3.4384 1.24337
thorax 1.49109 1.72352 2.09902
lowerneck -18.8594 -6.54434 -14.46
upperneck 22.1254 -8.34111 13.3942
head 11.5513 -3.46127 6.08753
lclavicle 1.48129e-14 -8.44022e-16 -1.87679e-32
lhumerus -46.6888 -4.02747 89.4115
lradius 19.9685 -0 0
lwrist -4.04209 0 0
lhand -8.23669 -22.9352 -0.00117513
lfingers 7.12502 -0 0
lthumb 17.6808 6.2777 -0.00185561
rclavicle 1.48129e-14 -8.44022e-16 -1.87679e-32
rhumerus -40.6974 9.04813 -89.225
rradius 31.0939 -0 0
rwrist -13.6553 0 0
rhand -26.3773 -30.8416 -0.00466013
rfingers 7.12502 -0 0
rthumb 0.181368 -60.8203 -0.00452607
427
root 10.3025 16.9665 24.3302 7.94519 -0.855277 -1.6242
lfemur -39.1494 2.43246 -22.6076
ltibia 35.1174 -0 0
lfoot -3.57292 7.62722 -0.00565666
ltoes 5.07646 -0 0
rfemur 9.92582 0.23482 21.9485
rtibia 30.9684 -0 0
rfoot 12.9165 7.98989 0.0275143
rtoes -18.3985 0 0
lowerback -7.62592 2.6052 -0.940448
upperback -2.57476 3.51077 1.21733
thorax 1.47557 1.76004 2.08445
lowerneck -18.849 -6.55294 -14.4746
upperneck 22.1514 -8.34914 13.3799
head 11.5603 -3.46814 6.08424
lclavicle 1.48694e-14 -5.21403e-16 -9.54302e-33
lhumerus -46.7429 -3.76194 89.2562
lradius 19.8193 -0 0
lwrist -4.31654 0 0
lhand -8.13575 -22.9465 -0.000597512
lfingers 7.12502 -0 0
lthumb 17.7781 6.25919 -0.000943516
rclavicle 1.48694e-14 -5.21403e-16 -9.54302e-33
rhumerus -40.7732 8.89756 -89.2924
rradius 30.8923 -0 0
rwrist -13.4991 0 0
rhand -26.3161 -30.9155 -0.00236953
rfingers 7.12502 -0 0
rthumb 0.240464 -60.8946 -0.00230136
428
root 10.3193 16.9649 24.4776 7.97015 -0.962708 -1.60989
lfemur -39.2881 2.36065 -22.6884
ltibia 34.6661 0 0
lfoot -3.40784 7.56197 0
ltoes 5.25452 0 0
rfemur 10.3741 0.163122 21.8214
rtibia 30.9689 0 0
rfoot 13.435 8.08864 0
rtoes -18.4721 0 0
lowerback -7.65607 2.65858 -0.950797
upperback -2.60367 3.58314 1.19124
thorax 1.46003 1.79655 2.06986
lowerneck -18.8386 -6.56153 -14.4891
upperneck 22.1774 -8.35716 13.3657
head 11.5693 -3.47502 6.08094
lclavicle 1.49259e-14 -1.98785e-16 0
lhumerus -46.7978 -3.49656 89.1008
lradius 19.67 0 0
lwrist -4.59098 0 0
lhand -8.03481 -22.9578 0
lfingers 7.12502 0 0
lthumb 17.8753 6.24067 0
rclavicle 1.49259e-14 -1.98785e-16 0
rhumerus -40.8487 8.74691 -89.3595
rradius 30.6908 0 0
rwrist -13.343 0 0
rhand -26.2549 -30.9894 0
rfingers 7.12502 0 0
rthumb 0.299557 -60.9689 0
